<svg xmlns="http://www.w3.org/2000/svg" viewBox="0 0 500 225.02"><defs><style>.cls-1{fill:#fff;}</style></defs><g id="Camada_2" data-name="Camada 2"><g id="Camada_4" data-name="Camada 4"><path class="cls-1" d="M103.14,90.22A82.78,82.78,0,0,0,76.4,71C56.89,62.24,16.55,40,4.68,1.64A2.24,2.24,0,0,0,2.48,0,2.3,2.3,0,0,0,.13,2.24C-.74,24.1,2,63.21,29.05,86.79c.78.69,1.58,1.34,2.4,2-9.26-2.69-18.73-7.13-26.24-14.41a2.12,2.12,0,0,0-1.51-.64,2.19,2.19,0,0,0-2,3.09c5.65,12.79,16.85,31,36.21,36.78a32.85,32.85,0,0,0,9.44,1.35,37.78,37.78,0,0,0,6.54-.59,99.62,99.62,0,0,1,17.32-1.57c8.71,0,18.7,1.28,27.54,5.61,13.12,8.84,24.9,21.07,30.2,37.83a.34.34,0,0,0,.33.25.34.34,0,0,0,.34-.31C130.49,149.52,132.13,121.44,103.14,90.22Z"/><path class="cls-1" d="M170.61,193.9l-9.56-5.63a23.28,23.28,0,0,1-11.37-18,1.2,1.2,0,0,1,.3-.88,1.27,1.27,0,0,1,.91-.4h2.74a5.59,5.59,0,0,0,5.58-5.75,5.73,5.73,0,0,0-5.78-5.4H106.25a5.57,5.57,0,0,0-5.58,5.75,5.72,5.72,0,0,0,5.78,5.4H109a1.24,1.24,0,0,1,.91.4,1.16,1.16,0,0,1,.3.88,23.25,23.25,0,0,1-11.36,18l-9.57,5.63A4.73,4.73,0,0,0,86.94,198v21.25A4.72,4.72,0,0,0,91.66,224h76.56a4.73,4.73,0,0,0,4.72-4.73V198A4.72,4.72,0,0,0,170.61,193.9Z"/><path class="cls-1" d="M141.69,74q1.68,3.2,1.68,9.44c0,4.17-.29,6.5-.87,7q-19.22-.81-35.21-.92t-20.5-.17a239,239,0,0,0,1.58-28.67V25.5q0-4.72-1.47-6.08a5.42,5.42,0,0,0-1.9-1,6,6,0,0,1-.81-3.51,23.68,23.68,0,0,1,.16-3.39q4.83-.06,13.57-.11t13.52-.11q13.41-.16,31.06-.87.87.76.87,7t-1.68,9.45q-1.68,3.2-6.3,3.2t-6.46-2.88V20.61q-15.86-.75-25.25-.76A67.63,67.63,0,0,1,105,34.51V45.86l23.35-1.19c.57.68.86,2.07.86,4.15a39,39,0,0,1-.54,6.38,63.06,63.06,0,0,1-8.5.43A145.1,145.1,0,0,1,105,54.55V66.39A66.4,66.4,0,0,1,103.68,81q9.39,0,25.25-.76V73.66c.61-1.19,2-2,4.23-2.55a11.74,11.74,0,0,1,2.88-.33A5.88,5.88,0,0,1,141.69,74Z"/><path class="cls-1" d="M210.27,16.21l-.49,33.45q0,11.56.32,28.13c0,2.42,1,3.73,3,3.91.43,0,1.1,0,2,0s1.61,0,2.12.06a4.22,4.22,0,0,1,.59,2.17,10,10,0,0,1-.16,2q-9.45,5.32-15.91,5.32-4.5-.7-7.22-7a27.15,27.15,0,0,1-7.6,5.35,20,20,0,0,1-8.15,1.65,33.54,33.54,0,0,1-8-.89,25.16,25.16,0,0,1-7.14-3.07,23.75,23.75,0,0,1-6.14-5.43q-5.87-7.33-5.86-19.76a30.46,30.46,0,0,1,2.71-13,25.81,25.81,0,0,1,7.28-9.44Q171,32.18,184,32.18a71.48,71.48,0,0,1,10.37,1l-.32-14.34a5.8,5.8,0,0,0-2-4.29,8.46,8.46,0,0,0-4.75-1.84c-.25-1.77-.38-2.78-.38-3a7.79,7.79,0,0,1,.05-.79,56.55,56.55,0,0,1,20.47-4h1a11.2,11.2,0,0,1,1.3,4.29A42.57,42.57,0,0,1,210.27,16.21ZM186.76,40.1a17.89,17.89,0,0,0-13.17,5.11q-5.13,5.1-5.13,15.47a34.13,34.13,0,0,0,1.65,11.6,18.94,18.94,0,0,0,3.67,6.54q4,4.07,8.31,4.07a13.56,13.56,0,0,0,6.62-1.3,25.69,25.69,0,0,0,5.7-5.16q.38-7.17.38-17.46t-.16-18.21A48.5,48.5,0,0,0,186.76,40.1Z"/><path class="cls-1" d="M233.07,45.86q0-4.12-2.88-4.89A25,25,0,0,0,225,40.1a12,12,0,0,1-.38-2.47,11.56,11.56,0,0,1,.06-1.33q7.82-4.39,19.6-4.39c1.26,0,2.2,0,2.82.05,1,1.59,1.72,4.71,2.12,9.34a76,76,0,0,1,.43,9.5q0,6.36-.43,38.66a61.2,61.2,0,0,1-10,1,19.42,19.42,0,0,1-6.76-1q1-13.08,1-23.43T233.07,45.86Zm1.47-39.69a10.53,10.53,0,0,1,7-2.72,8.65,8.65,0,0,1,6.19,2.31,8.49,8.49,0,0,1,2.44,6.49,9.1,9.1,0,0,1-3.15,7,10.42,10.42,0,0,1-7.19,2.85,8.22,8.22,0,0,1-6.36-2.5,9,9,0,0,1-2.3-6.4A9.42,9.42,0,0,1,234.54,6.17Z"/><path class="cls-1" d="M293.78,78.44A6.32,6.32,0,0,1,296,82.13q-7.17,9.12-16.56,9.12-6.13,0-8.69-4.88-2.16-4.29-2.66-14.72-.43-16.29-.43-30.35a48.74,48.74,0,0,1-6.79-.54,9.8,9.8,0,0,1-.27-3.21c0-1.84.09-2.86.27-3l6.9-.65q0-1.14.32-10.91a17.72,17.72,0,0,1,8-4.27,34.66,34.66,0,0,1,9.31-1.49q-.76,6.9-1.25,16.67c1.2,0,4.8.25,10.81.65a15,15,0,0,1,.27,3.53,10.11,10.11,0,0,1-.27,3.15,107.66,107.66,0,0,1-11.13.82q-.23,6.45-.22,16.31t.43,18.6c.11,2.24,1.24,3.37,3.4,3.37A12.52,12.52,0,0,0,293.78,78.44Z"/><path class="cls-1" d="M368,59.82a35,35,0,0,1-2.55,13.35,26,26,0,0,1-7.23,10.21q-9.39,8-24.81,8a28.68,28.68,0,0,1-14.23-3.64,27.24,27.24,0,0,1-10.37-10.18,30.24,30.24,0,0,1-3.85-15.63,29.64,29.64,0,0,1,4.67-16.38q9.17-14.33,30.78-14.33a27.48,27.48,0,0,1,19.06,7.44Q367.94,46.41,368,59.82Zm-47,1.57a25.77,25.77,0,0,0,5.37,16.23q5.37,7,12.6,6.95,13.35,0,13.36-21.77,0-10.8-4.95-17.54t-12.59-6.73a11.39,11.39,0,0,0-6.68,2,12.3,12.3,0,0,0-4.29,5.26Q320.93,52.11,320.93,61.39Z"/><path class="cls-1" d="M417.74,52.92q0-9.29-4.24-9.29a11,11,0,0,0-5.91,1.77,38.06,38.06,0,0,0-6.09,4.91q0,5.43-.32,39.15a60.68,60.68,0,0,1-9.86,1,18.81,18.81,0,0,1-6.59-1q.64-9,.65-30.89V45.86q0-4.12-2.88-4.89a27.18,27.18,0,0,0-5.27-.87,12,12,0,0,1-.38-2.47,11.56,11.56,0,0,1,.06-1.33q7.81-4.39,19.33-4.39c1.26,0,2.2,0,2.82.05a14,14,0,0,1,1.87,5.65c.2,2,.36,3.82.47,5.59q7.28-8.85,12.27-10.75a13.76,13.76,0,0,1,5.05-.92,12.39,12.39,0,0,1,8.71,3q3.29,3,3.29,8.82a9.68,9.68,0,0,1-3.26,7.44,11.09,11.09,0,0,1-7.77,2.93,11.66,11.66,0,0,1-1.95-.16Z"/><path class="cls-1" d="M490.66,58.67l-.33,18.25v.54c0,2,.95,3,2.83,3A9.3,9.3,0,0,0,497.77,79a6.8,6.8,0,0,1,1.44,1.82,5.73,5.73,0,0,1,.79,1.81q-6.74,8.58-14,8.58t-10.13-7.11a42.16,42.16,0,0,1-10.18,5.29,27.51,27.51,0,0,1-8.9,1.82,27.9,27.9,0,0,1-6.9-.81A19.11,19.11,0,0,1,444,87.83q-5.86-3.8-5.87-12.54a13.4,13.4,0,0,1,2.58-8.17,17.38,17.38,0,0,1,7-5.51q8.52-3.86,20.36-4.18l6.3-.22q.38-4.4.38-7c0-3.84-.74-6.73-2.2-8.69s-4.19-2.93-8.18-2.93a6.69,6.69,0,0,0-5.56,2.5q-2,2.49-2,7.38c0,.44-.62,1-1.85,1.58a14.39,14.39,0,0,1-6.16,1.46A6.77,6.77,0,0,1,444,49.82a6.42,6.42,0,0,1-1.82-4.88A9.17,9.17,0,0,1,444.45,39a14.77,14.77,0,0,1,6.08-4.29,46.53,46.53,0,0,1,17.22-3q10.1,0,14.77,3.21a15.28,15.28,0,0,1,6,8.09A48.7,48.7,0,0,1,490.66,58.67ZM474.43,78.44a40,40,0,0,1-.71-6.87c0-1.94,0-4.64.16-8.12l-7.54.33q-5.82,0-9,2.82a9.09,9.09,0,0,0-3.15,7.06q0,4.23,1.84,6.08t7.47,1.85A21,21,0,0,0,474.43,78.44Z"/><path class="cls-1" d="M192.35,207.7q0-6.34,7.27-6.35a15.33,15.33,0,0,1,7.28,1.9q0,6.9,2.88,10.56t9.85,3.66q7,0,10.24-2.66t3.26-8.47a13.89,13.89,0,0,0-4.78-10.58,40.2,40.2,0,0,0-9.07-6.3q-5.16-2.67-8.31-4.37a54.19,54.19,0,0,1-6-3.78,34.36,34.36,0,0,1-5.07-4.45,17.53,17.53,0,0,1-4.78-12.35,19.56,19.56,0,0,1,3.74-12.14q7.33-9.66,23.84-9.66,12.7,0,19.39,5.26,6.07,4.84,6.08,10.75a6.06,6.06,0,0,1-1.88,4.57c-1.25,1.19-3.17,1.79-5.78,1.79a18.29,18.29,0,0,1-8-2v-.71q0-6-2.68-9.66t-8.12-3.64a11.93,11.93,0,0,0-8.61,3q-3.17,3-3.17,9,0,5.1,5,9a55.56,55.56,0,0,0,9.12,5.54c3.77,1.88,6.74,3.41,8.94,4.59a50.93,50.93,0,0,1,6.27,4,32.83,32.83,0,0,1,5.26,4.8,19.07,19.07,0,0,1,5,13,19.59,19.59,0,0,1-4,12.43,24.65,24.65,0,0,1-10.59,7.71,35.77,35.77,0,0,1-13.33,2.64,51.83,51.83,0,0,1-11.32-1.06,30.14,30.14,0,0,1-7.82-2.83,25.79,25.79,0,0,1-5.54-4Q192.35,212.49,192.35,207.7Z"/><path class="cls-1" d="M312.08,192.12l-.33,18.24v.54c0,2,.94,3,2.82,3a9.3,9.3,0,0,0,4.62-1.41,7,7,0,0,1,1.44,1.82,5.93,5.93,0,0,1,.78,1.82q-6.72,8.58-14,8.58t-10.12-7.12a42.94,42.94,0,0,1-10.18,5.3,25.2,25.2,0,0,1-15.81,1,19.44,19.44,0,0,1-5.89-2.6q-5.87-3.81-5.86-12.55a13.42,13.42,0,0,1,2.58-8.17,17.43,17.43,0,0,1,7-5.51q8.52-3.86,20.36-4.18l6.3-.22q.38-4.4.38-7c0-3.84-.73-6.73-2.2-8.69s-4.19-2.93-8.17-2.93a6.71,6.71,0,0,0-5.57,2.5c-1.32,1.66-2,4.13-2,7.38,0,.44-.61,1-1.84,1.58a14.29,14.29,0,0,1-6.17,1.46,6.76,6.76,0,0,1-4.88-1.73,6.42,6.42,0,0,1-1.82-4.89,9.17,9.17,0,0,1,2.28-5.92,15,15,0,0,1,6.08-4.29,46.51,46.51,0,0,1,17.21-3q10.09,0,14.77,3.2a15.35,15.35,0,0,1,6,8.09A48.73,48.73,0,0,1,312.08,192.12Zm-16.24,19.76a40,40,0,0,1-.71-6.87c0-1.93.06-4.64.17-8.11l-7.55.32q-5.81,0-9,2.83a9.07,9.07,0,0,0-3.15,7c0,2.83.62,4.85,1.85,6.09S281.21,215,285,215A20.94,20.94,0,0,0,295.84,211.88Z"/><path class="cls-1" d="M350.36,148.08l.05,1.85c0,1,0,2.5-.05,4.45s-.08,4.51-.11,7.66-.08,6.13-.11,9a27.47,27.47,0,0,1,17.05-6q12.54,0,18.76,6.89t6.21,19.66q0,11.79-5.37,19.11Q376.31,225,356.71,225q-13.68,0-23-2.77.85-14.38.86-36.87t-.32-32.74a5.84,5.84,0,0,0-2-4.29,8.32,8.32,0,0,0-4.78-1.84c-.25-1.78-.38-2.78-.38-3a5.77,5.77,0,0,1,.06-.78,56.44,56.44,0,0,1,20.52-4h1C349.45,139.79,350,142.91,350.36,148.08ZM350,178.87v13.95q0,15.85.22,24.87a40.66,40.66,0,0,0,6.46.44q7.11,0,12.7-5.87,6.13-6.51,6.14-19.33,0-19.49-11.62-19.49a16.16,16.16,0,0,0-6.24,1.3A54.09,54.09,0,0,0,350,178.87Z"/><path class="cls-1" d="M408.94,179.3q0-4.12-2.88-4.88a23.77,23.77,0,0,0-5.21-.87,12.18,12.18,0,0,1-.38-2.47,11.44,11.44,0,0,1,.06-1.33q7.82-4.41,19.6-4.4c1.26,0,2.2,0,2.82.05q1.51,2.4,2.12,9.34a76,76,0,0,1,.43,9.5q0,6.36-.43,38.66a61.37,61.37,0,0,1-10,1,19.41,19.41,0,0,1-6.76-1q1-13.08,1-23.42T408.94,179.3Zm1.47-39.69a10.52,10.52,0,0,1,6.95-2.71,8.68,8.68,0,0,1,6.19,2.3,8.5,8.5,0,0,1,2.44,6.49,9.1,9.1,0,0,1-3.15,7,10.39,10.39,0,0,1-7.19,2.86,8.22,8.22,0,0,1-6.35-2.5,9.07,9.07,0,0,1-2.31-6.41A9.42,9.42,0,0,1,410.41,139.61Z"/><path class="cls-1" d="M490.66,192.12l-.33,18.24v.54c0,2,.95,3,2.83,3a9.3,9.3,0,0,0,4.61-1.41,6.8,6.8,0,0,1,1.44,1.82,5.76,5.76,0,0,1,.79,1.82q-6.74,8.58-14,8.58t-10.13-7.12a42.56,42.56,0,0,1-10.18,5.3,25.16,25.16,0,0,1-15.8,1,19.33,19.33,0,0,1-5.89-2.6q-5.86-3.81-5.87-12.55a13.42,13.42,0,0,1,2.58-8.17,17.46,17.46,0,0,1,7-5.51q8.52-3.86,20.36-4.18l6.3-.22q.38-4.4.38-7c0-3.84-.74-6.73-2.2-8.69s-4.19-2.93-8.18-2.93a6.69,6.69,0,0,0-5.56,2.5c-1.32,1.66-2,4.13-2,7.38,0,.44-.62,1-1.85,1.58a14.24,14.24,0,0,1-6.16,1.46,6.77,6.77,0,0,1-4.89-1.73,6.46,6.46,0,0,1-1.82-4.89,9.17,9.17,0,0,1,2.28-5.92,15,15,0,0,1,6.08-4.29,46.53,46.53,0,0,1,17.22-3q10.1,0,14.77,3.2a15.28,15.28,0,0,1,6,8.09A48.73,48.73,0,0,1,490.66,192.12Zm-16.23,19.76a40,40,0,0,1-.71-6.87c0-1.93,0-4.64.16-8.11l-7.54.32q-5.82,0-9,2.83a9.07,9.07,0,0,0-3.15,7c0,2.83.61,4.85,1.84,6.09s3.72,1.84,7.47,1.84A21,21,0,0,0,474.43,211.88Zm-15.91-55.27q2.87-10.59,4.88-14.31a25.47,25.47,0,0,1,3.32-5.08,6.19,6.19,0,0,1,4.23-2.28,11.38,11.38,0,0,1,5.78,1.66,7.63,7.63,0,0,1,3.34,4.26q-4.19,3.21-16.23,18.46A11.89,11.89,0,0,1,458.52,156.61Z"/></g></g></svg>